<?xml version="1.0" encoding="utf-8"?>
<!-- Generator: Adobe Illustrator 19.1.0, SVG Export Plug-In . SVG Version: 6.00 Build 0)  -->
<svg version="1.1" id="Layer_1" xmlns="http://www.w3.org/2000/svg" xmlns:xlink="http://www.w3.org/1999/xlink" x="0px" y="0px"
	 viewBox="-224 357 152 79" style="enable-background:new -224 357 152 79;" xml:space="preserve">
<style type="text/css">
	.st0{clip-path:url(#SVGID_2_);}
</style>
<g>
	<defs>
		<rect id="SVGID_1_" x="-1272" y="-469" width="1921" height="5207"/>
	</defs>
	<clipPath id="SVGID_2_">
		<use xlink:href="#SVGID_1_"  style="overflow:visible;"/>
	</clipPath>
	<g class="st0">
		<path d="M-109.7,379.3c-0.6-0.8-1.5-1.3-2.5-1.4l-5.1-0.7c-1-0.2-2,0.6-3.8,2.2c-0.2,0.2-0.4,0.3-0.5,0.4l-0.2,0.1
			c0,0-0.1,0-0.1,0.1c-0.2-0.3-0.4-0.6-0.6-0.9c-5-6.8-8.1-10.9-9.3-11.7c-1.7-1-4-2.3-6-2.4l-49.5,0c-1.9,0.2-4.3,1.4-5.9,2.4
			c-1.1,0.7-4.3,4.8-9.3,11.7c-0.2,0.3-0.4,0.6-0.6,0.9c-0.1-0.1-0.2-0.1-0.3-0.2c-0.1-0.1-0.3-0.2-0.5-0.4
			c-1.8-1.6-2.8-2.3-3.8-2.2l-5.2,0.7c-1,0.1-1.9,0.6-2.5,1.4c-0.6,0.8-0.8,1.8-0.6,2.6c0.2,1.1,0.9,2,1.8,2.6
			c0.2,0.1,0.6,0.4,8.1,1.7c0.7,0.2,1.4,0.1,2-0.1l0.2,1.6c-3.1,0.8-7.9,2.3-8.8,4.6c-0.6,1.4-0.4,9.9-0.3,13.4
			c0,1.7,0.4,3.1,1.3,4.1c0,0,0,0.1,0,0.1l0,14.5c0.2,2.9,3.1,4.5,5.8,4.5h8.2c2.7,0,5.6-1.6,5.6-4.7v-3.2l7.7,0.4l1.2,0.7h41.2
			l1.2-0.7l7.7-0.4v3.2c0,3,2.9,4.7,5.6,4.7h8.2c2.7,0,5.6-1.6,5.8-4.6V410c0,0,0-0.1,0-0.1c0.9-1,1.3-2.4,1.3-4.1
			c0.1-3.6,0.2-12-0.3-13.4c-0.9-2.3-5.7-3.8-8.8-4.6l0.2-1.6c0.6,0.2,1.3,0.3,2,0.1c2.7-0.5,7.2-1.4,7.6-1.5
			c1.2-0.4,2.2-1.6,2.3-2.8C-108.9,381.1-109.1,380.1-109.7,379.3z M-191.7,374c0.9-1.3,3.9-2.9,5.2-3.5h48.1
			c1.7,0.8,4.4,2.4,5.2,3.5c1.1,1.5,7.2,10.2,9.3,13.2h-77.2C-198.9,384.2-192.8,375.6-191.7,374z M-183.3,407
			c-0.3,0.3-0.9,0.4-1.3,0.4c-7-3-17.6-7.6-18.8-8.3c-0.1-0.1-0.2-0.1-0.2-0.2c0.1-0.3,0.6-0.8,1-1.1c4,0.5,13.6,1.8,15.7,2.6
			c2.2,0.7,3.9,3.9,3.8,6.1C-183,406.7-183.2,406.9-183.3,407z M-121.6,399L-121.6,399c-1.2,0.8-11.9,5.4-18.8,8.3
			c-0.3,0-0.9-0.1-1.3-0.4c-0.1-0.1-0.3-0.3-0.3-0.7c-0.1-2.1,1.5-5.3,3.8-6.1c2.1-0.7,11.7-2,15.7-2.6c0.6,0.4,1.1,1,1.1,1.2
			C-121.3,398.8-121.4,398.9-121.6,399z"/>
	</g>
</g>
</svg>
