<svg xmlns="http://www.w3.org/2000/svg" xmlns:xlink="http://www.w3.org/1999/xlink" preserveAspectRatio="xMidYMid" width="113" height="142" viewBox="0 0 113 142">
  <defs>
    <style>
      .cls-1 {
        fill: #000;
        fill-rule: evenodd;
      }
    </style>
  </defs>
  <path d="M101.891,35.413 L94.271,43.072 C105.756,53.471 113.014,68.481 113.014,85.197 C113.014,116.505 87.653,141.999 56.508,141.999 C25.362,141.999 0.001,116.505 0.001,85.226 C0.001,56.322 21.608,32.450 49.444,28.928 L49.444,14.224 L38.154,14.224 C36.569,14.224 35.318,12.938 35.318,11.373 L35.318,2.847 C35.318,1.254 36.597,-0.004 38.154,-0.004 L74.861,-0.004 C76.446,-0.004 77.697,1.254 77.697,2.847 L77.697,11.345 C77.697,12.938 76.418,14.196 74.861,14.196 L63.599,14.196 L63.599,28.872 C70.328,29.738 76.696,31.807 82.508,34.826 L91.907,25.377 C93.020,24.259 94.799,24.259 95.912,25.377 L101.891,31.388 C103.003,32.506 103.003,34.295 101.891,35.413 ZM56.508,42.597 C33.149,42.597 14.128,61.717 14.128,85.197 C14.128,108.678 33.149,127.798 56.508,127.798 C79.866,127.798 98.887,108.678 98.887,85.197 C98.887,61.717 79.866,42.597 56.508,42.597 ZM49.861,112.843 C39.656,110.495 31.369,102.165 29.033,91.906 C24.917,73.849 37.960,57.747 55.006,56.853 C55.812,56.797 56.508,57.496 56.508,58.306 L56.508,83.772 C56.508,84.555 57.147,85.197 57.926,85.197 L83.259,85.197 C84.065,85.197 84.761,85.896 84.733,86.707 C83.843,103.842 67.825,116.952 49.861,112.843 Z" class="cls-1"/>
</svg>
