<svg xmlns="http://www.w3.org/2000/svg" xmlns:xlink="http://www.w3.org/1999/xlink" preserveAspectRatio="xMidYMid" width="207" height="109" viewBox="0 0 207 109">
  <defs>
    <style>
      .cls-1 {
        fill: #fff;
        fill-rule: evenodd;
      }
    </style>
  </defs>
  <path d="M203.778,67.342 L188.224,67.342 L179.955,75.629 C179.346,76.239 178.537,76.575 177.676,76.575 C176.816,76.575 176.007,76.239 175.398,75.629 L167.129,67.342 L157.606,67.342 L157.606,86.523 C157.606,89.284 155.365,91.529 152.610,91.529 L122.726,91.529 L106.761,107.529 C105.818,108.475 104.563,108.996 103.227,108.996 C101.893,108.996 100.638,108.475 99.694,107.529 L83.728,91.529 L53.845,91.529 C51.090,91.529 48.849,89.284 48.849,86.523 L48.849,67.342 L39.869,67.342 L31.600,75.629 C30.991,76.239 30.183,76.575 29.322,76.575 C28.462,76.575 27.653,76.239 27.043,75.629 L18.775,67.342 L3.220,67.342 C1.444,67.342 -0.002,65.894 -0.002,64.114 L-0.002,21.030 C-0.002,19.250 1.444,17.802 3.220,17.802 L48.849,17.802 L48.849,5.013 C48.849,2.252 51.090,0.005 53.845,0.005 L152.610,0.005 C155.365,0.005 157.606,2.252 157.606,5.013 L157.606,17.802 L203.778,17.802 C205.554,17.802 207.000,19.250 207.000,21.030 L207.000,64.114 C207.000,65.894 205.554,67.342 203.778,67.342 ZM48.849,24.259 L6.442,24.259 L6.442,60.885 L20.109,60.885 C20.971,60.885 21.782,61.222 22.389,61.833 L29.322,68.779 L36.256,61.831 C36.863,61.221 37.673,60.885 38.534,60.885 L48.849,60.885 L48.849,24.259 ZM147.614,10.019 L58.841,10.019 L58.841,81.516 L85.798,81.516 C87.135,81.516 88.390,82.037 89.333,82.984 L103.227,96.907 L117.123,82.983 C118.066,82.037 119.321,81.516 120.656,81.516 L147.614,81.516 L147.614,10.019 ZM200.557,24.259 L157.606,24.259 L157.606,60.885 L168.464,60.885 C169.326,60.885 170.136,61.222 170.743,61.833 L177.676,68.779 L184.611,61.831 C185.218,61.221 186.027,60.885 186.889,60.885 L200.557,60.885 L200.557,24.259 ZM179.781,56.554 C173.147,52.676 167.595,47.112 163.725,40.463 C162.944,39.122 162.531,37.592 162.531,36.038 C162.531,33.692 163.443,31.487 165.098,29.829 C166.515,28.408 168.393,27.551 170.386,27.414 L171.372,27.346 L174.362,35.339 L171.387,38.321 C171.316,38.392 171.306,38.503 171.361,38.585 C174.093,42.693 177.557,46.163 181.655,48.901 C181.736,48.956 181.847,48.946 181.916,48.875 L184.894,45.893 L192.869,48.889 L192.801,49.877 C192.665,51.875 191.809,53.757 190.392,55.178 C188.738,56.836 186.538,57.750 184.196,57.750 C182.647,57.750 181.120,57.336 179.781,56.554 ZM107.209,72.220 C94.658,64.883 84.154,54.356 76.832,41.777 C75.355,39.240 74.574,36.345 74.574,33.406 C74.574,28.968 76.298,24.796 79.430,21.659 C82.111,18.971 85.665,17.348 89.435,17.090 L91.300,16.962 L96.957,32.083 L91.328,37.725 C91.195,37.859 91.174,38.068 91.278,38.225 C96.448,45.996 103.001,52.562 110.754,57.742 C110.908,57.845 111.117,57.827 111.249,57.693 L116.882,52.050 L131.970,57.719 L131.842,59.588 C131.584,63.368 129.965,66.929 127.285,69.616 C124.156,72.754 119.992,74.483 115.563,74.483 C112.630,74.483 109.742,73.700 107.209,72.220 ZM31.426,56.554 C24.793,52.676 19.241,47.112 15.370,40.463 C14.589,39.122 14.176,37.592 14.176,36.038 C14.176,33.692 15.088,31.487 16.743,29.829 C18.161,28.408 20.039,27.551 22.032,27.414 L23.017,27.346 L26.008,35.339 L23.032,38.321 C22.962,38.392 22.951,38.503 23.006,38.585 C25.739,42.693 29.202,46.163 33.300,48.901 C33.381,48.956 33.492,48.946 33.562,48.875 L36.539,45.893 L44.514,48.889 L44.447,49.877 C44.310,51.875 43.455,53.757 42.038,55.178 C40.384,56.836 38.183,57.750 35.842,57.750 C34.292,57.750 32.765,57.336 31.426,56.554 Z" class="cls-1"/>
</svg>
