<?xml version="1.0" encoding="utf-8"?>
<!-- Generator: Adobe Illustrator 19.1.0, SVG Export Plug-In . SVG Version: 6.00 Build 0)  -->
<svg version="1.1" id="Layer_1" xmlns="http://www.w3.org/2000/svg" xmlns:xlink="http://www.w3.org/1999/xlink" x="0px" y="0px"
	 viewBox="-232 339 146 116" style="enable-background:new -232 339 146 116;" xml:space="preserve">
<path d="M-103,446.3h-112c-3.3,0-6-2.6-6-5.9v-64.1c0-3.3,2.6-5.9,6-5.9h112c3.3,0,6,2.6,6,5.9v64.1C-97,443.6-99.6,446.3-103,446.3
	z M-104.2,390.5c-7.2,0-13.1-5.9-13.1-13.1h-82.2c0,7.1-6,13.1-13.1,13.1h-1.2v35.6h1.2c7.2,0,13.1,5.9,13.1,13.1h81
	c0-7.1,6-13.1,13.1-13.1h1.2V390.5z M-177.6,427.3c-10.3-10.2-10.3-26.8,0-37c10.3-10.2,27-10.2,37.3,0c10.3,10.2,10.3,26.8,0,37
	C-150.6,437.5-167.4,437.5-177.6,427.3z M-153.5,402.8l1,1.2l2.6-3.1l-0.5-0.7c-1.7-2.1-3.8-3.3-6.2-3.8v-3.6h-3.8v3.3
	c-4.1,0.7-6.7,3.8-6.7,7.6c0,4.7,3.6,6.4,6.7,7.4v8.1c-1.9-0.5-3.3-1.9-4.1-2.8l-1-1.2l-2.6,3.3l0.5,0.7c1.7,2.4,4.3,3.8,7.2,4.3
	v3.3h3.8v-3.3c5-0.9,6.9-4.7,6.9-8.1c0-5.5-4.1-7.1-6.9-8.1v-6.9C-155.4,400.9-154.2,401.6-153.5,402.8z M-163.1,403.5
	c0-1.4,1-2.6,2.4-3.1v5.7C-162.3,405.4-163.1,404.7-163.1,403.5z M-154,415.4c0,0.9-0.2,2.8-2.6,3.6v-6.6
	C-154.7,413.3-154,414.2-154,415.4z M-207.9,359.6h97.7v7.1h-97.7V359.6z M-193.5,347.7h69.1v7.1h-69.1V347.7z"/>
</svg>
