<svg xmlns="http://www.w3.org/2000/svg" xmlns:xlink="http://www.w3.org/1999/xlink" preserveAspectRatio="xMidYMid" width="119" height="116" viewBox="0 0 119 116">
  <defs>
    <style>
      .cls-1 {
        fill: #fff;
        fill-rule: evenodd;
      }
    </style>
  </defs>
  <path d="M74.160,46.227 C66.924,46.227 61.057,40.387 61.057,33.182 C61.057,25.977 66.924,20.136 74.160,20.136 C81.392,20.136 87.257,25.969 87.264,33.169 C87.270,40.374 81.409,46.221 74.173,46.227 C74.169,46.227 74.164,46.227 74.160,46.227 ZM43.169,24.579 C48.468,22.420 52.572,18.087 54.425,12.694 L93.908,12.694 C95.891,18.501 100.472,23.062 106.305,25.036 L106.305,41.315 C100.472,43.289 95.891,47.850 93.908,53.658 L66.536,53.658 L76.689,66.296 L112.640,66.296 C116.145,66.310 118.998,63.492 119.012,60.001 C119.012,59.998 119.012,59.993 119.012,59.989 L119.012,6.362 C119.039,2.872 116.220,0.021 112.714,-0.007 C112.698,-0.007 112.681,-0.007 112.665,-0.007 L35.669,-0.007 C32.163,-0.007 29.322,2.822 29.322,6.313 L29.322,7.399 L29.644,7.756 L43.169,24.579 ZM0.152,94.165 C1.266,85.445 8.146,78.570 16.900,77.429 C17.722,77.324 18.550,77.271 19.379,77.268 C21.053,77.265 22.719,77.476 24.338,77.898 L34.751,64.938 L19.652,50.128 C15.009,45.558 11.926,39.652 10.838,33.243 C9.617,26.083 12.062,18.787 17.359,13.792 C17.916,13.259 18.657,12.959 19.429,12.953 L19.727,12.953 C20.505,13.032 21.220,13.419 21.710,14.026 L72.995,77.898 C74.614,77.477 76.281,77.265 77.954,77.268 C78.891,77.269 79.827,77.335 80.755,77.466 C91.404,78.825 98.928,88.522 97.563,99.123 C96.301,108.914 87.841,116.190 77.929,116.011 L76.776,116.011 C66.059,115.387 57.879,106.232 58.505,95.562 C58.626,93.512 59.073,91.495 59.830,89.586 L48.673,78.614 L37.516,89.586 C38.860,93.022 39.196,96.767 38.483,100.385 C36.830,109.082 29.400,115.514 20.520,115.937 L19.441,115.937 C8.706,115.939 0.002,107.276 -0.000,96.588 C-0.000,95.778 0.051,94.969 0.152,94.165 ZM70.255,96.633 C70.255,100.853 73.691,104.273 77.929,104.273 C82.167,104.273 85.603,100.853 85.603,96.633 C85.603,92.414 82.167,88.993 77.929,88.993 C73.703,89.000 70.276,92.402 70.255,96.609 L70.255,96.633 ZM11.768,96.633 C11.768,100.853 15.204,104.273 19.441,104.273 C23.679,104.273 27.115,100.853 27.115,96.633 C27.115,92.414 23.679,88.993 19.441,88.993 C15.216,89.000 11.788,92.402 11.768,96.609 L11.768,96.633 Z" class="cls-1"/>
</svg>
