<?xml version="1.0" encoding="utf-8"?>
<!-- Generator: Adobe Illustrator 19.1.0, SVG Export Plug-In . SVG Version: 6.00 Build 0)  -->
<svg version="1.1" id="Layer_1" xmlns="http://www.w3.org/2000/svg" xmlns:xlink="http://www.w3.org/1999/xlink" x="0px" y="0px"
	 viewBox="-224 348 162 97" style="enable-background:new -224 348 162 97;" xml:space="preserve">
<path d="M-77.8,374.6c-0.7-1-1.8-1.6-3-1.8l-6.3-0.8c-1.2-0.2-2.4,0.7-4.7,2.7c-0.3,0.2-0.5,0.4-0.6,0.5l-0.2,0.2
	c0,0-0.1,0.1-0.1,0.1c-0.2-0.3-0.5-0.7-0.8-1.1c-6.2-8.4-10-13.5-11.5-14.4c-2-1.3-5-2.8-7.4-3l-61.1,0c-2.4,0.2-5.3,1.7-7.3,3
	c-1.4,0.9-5.3,6-11.5,14.4c-0.3,0.4-0.6,0.8-0.8,1.1c-0.1-0.1-0.2-0.2-0.3-0.2c-0.1-0.1-0.3-0.3-0.6-0.5c-2.2-2-3.5-2.9-4.6-2.7
	l-6.4,0.8c-1.2,0.1-2.3,0.8-3,1.8c-0.7,1-1,2.2-0.8,3.2c0.2,1.3,1.1,2.5,2.2,3.2c0.3,0.2,0.7,0.5,9.9,2.2c0.8,0.2,1.7,0.1,2.5-0.2
	l0.2,2c-3.8,0.9-9.7,2.8-10.9,5.7c-0.7,1.7-0.5,12.2-0.4,16.5c0,2.1,0.6,3.8,1.6,5.1c0,0.1,0,0.1,0,0.2l0,17.9
	c0.2,3.6,3.8,5.5,7.1,5.5h10.2c3.4,0,6.9-2,6.9-5.8v-4l9.6,0.6l1.5,0.8h50.8l1.5-0.8l9.6-0.6v4c0,3.8,3.6,5.8,6.9,5.8h10.2
	c3.3,0,6.9-1.9,7.1-5.6v-17.8c0,0,0-0.1,0-0.2c1.1-1.2,1.6-2.9,1.6-5c0.1-4.4,0.3-14.9-0.4-16.6c-1.2-2.9-7-4.7-10.9-5.7l0.2-2
	c0.8,0.3,1.6,0.4,2.4,0.2c3.3-0.6,8.9-1.7,9.4-1.8c1.5-0.5,2.7-1.9,2.9-3.5C-76.9,376.8-77.1,375.6-77.8,374.6z M-179.1,368.1
	c1.1-1.5,4.8-3.5,6.4-4.3h59.4c2.1,1,5.4,2.9,6.4,4.3c1.3,1.9,8.9,12.6,11.5,16.3h-95.2C-187.9,380.7-180.4,370-179.1,368.1z
	 M-168.6,408.8c-0.4,0.4-1.2,0.4-1.6,0.4c-8.6-3.7-21.7-9.4-23.2-10.3c-0.1-0.1-0.2-0.2-0.2-0.3c0.1-0.4,0.7-0.9,1.3-1.4
	c5,0.6,16.8,2.3,19.4,3.2c2.7,0.9,4.8,4.8,4.6,7.5C-168.3,408.4-168.5,408.7-168.6,408.8z M-92.5,398.9L-92.5,398.9
	c-1.5,0.9-14.6,6.6-23.2,10.3c-0.4,0-1.1-0.1-1.6-0.4c-0.1-0.1-0.3-0.4-0.4-0.9c-0.1-2.6,1.9-6.6,4.6-7.5c2.6-0.9,14.4-2.5,19.4-3.1
	c0.7,0.5,1.4,1.2,1.4,1.4C-92.3,398.7-92.3,398.8-92.5,398.9z"/>
</svg>
