<svg width="156" height="53" viewBox="0 0 156 53" fill="none" xmlns="http://www.w3.org/2000/svg">
<path d="M74.9052 46.6165C75.0563 46.6165 75.1318 46.541 75.1318 46.3899C75.1318 46.201 75.2074 46.0121 75.2451 45.7855C75.2451 45.6344 75.3207 45.5588 75.4718 45.5588C75.6607 45.5211 75.8117 45.4455 76.0006 45.4077C76.1517 45.37 76.265 45.2944 76.3028 45.1433C76.3783 44.9167 76.4539 44.7278 76.5672 44.5012C76.605 44.4256 76.6805 44.3501 76.7561 44.3123C77.0961 44.0857 77.2094 43.6702 77.4738 43.368C77.5116 43.3302 77.4738 43.2546 77.4738 43.1791C77.436 42.6503 77.3982 42.0837 77.3982 41.5548C77.3982 41.4037 77.5871 41.2526 77.7004 41.2149C77.9648 41.1771 78.2293 41.1015 78.3804 40.8749C78.607 40.5349 78.9092 40.3461 79.3625 40.3838C79.8158 40.3838 80.0424 40.0817 80.2313 39.7039C80.269 39.6284 80.3446 39.5528 80.4201 39.4395C80.3446 39.1751 80.4957 38.9107 80.6468 38.684C80.7979 38.4574 80.7601 38.3063 80.6846 38.0797C80.6468 38.0041 80.6468 37.9286 80.609 37.853C80.5335 37.7019 80.5335 37.5508 80.609 37.3997C80.8356 37.0975 80.8734 36.7198 81.0623 36.3798C81.1756 36.191 81.2134 36.0021 81.1001 35.8132C81.1001 35.7755 81.1001 35.7377 81.1001 35.7377C81.2134 35.4355 81.2134 35.4355 81.1756 35.02C81.4022 34.9822 81.6289 34.9822 81.8178 34.9444V34.9822C81.8933 34.9444 81.9311 34.8689 82.0066 34.8311C82.4977 34.7933 82.611 34.3778 82.7999 34.0379C82.8754 33.8868 82.9132 33.7357 82.951 33.6224C82.9887 33.5468 83.0643 33.4713 83.0643 33.4713C83.1398 33.2824 83.1776 33.1313 83.2532 32.9802C83.3665 32.7158 83.3665 32.4136 83.1776 32.187C82.951 31.847 82.7621 31.5448 82.8376 31.1293C82.8376 31.0538 82.8376 30.9782 82.7999 30.9404C82.6488 30.7893 82.6866 30.6005 82.7999 30.4494C82.8754 30.2605 82.9887 30.1094 83.0643 29.9205C83.1776 29.6561 83.3665 29.5428 83.5931 29.4295C83.8198 29.3162 83.8953 29.1651 83.8575 28.9762C83.6687 28.8629 83.5176 28.7873 83.3287 28.674C83.4043 28.5607 83.4798 28.4474 83.5176 28.3718C83.2154 28.0696 82.951 27.8052 82.6488 27.5408C82.611 27.503 82.611 27.4275 82.611 27.3897C82.6866 27.1253 82.7999 26.8609 82.8754 26.5965H82.5732L83.7064 21.1948H5.28831L0 47.0698H73.6586C74.0364 46.8431 74.4519 46.6165 74.9052 46.6165Z" fill="#0C0C0C"/>
<path d="M84.1332 26.7471C83.9821 27.0493 83.8688 27.5781 84.2088 27.767C84.2466 27.767 84.2465 27.8047 84.2465 27.8425C84.1332 28.0691 84.3976 28.1069 84.4354 28.258C84.511 28.5224 84.7376 28.6358 84.9265 28.7868C84.9642 28.8246 84.9265 28.9002 84.9643 28.9757C85.2287 29.3535 84.9265 29.5423 84.7376 29.8067C84.6621 29.8823 84.6243 29.9956 84.5487 30.1089L84.5865 30.1467C84.4732 30.1845 84.3976 30.2222 84.2843 30.26C84.1332 30.3356 83.9444 30.3356 84.0199 30.6C84.0199 30.6378 83.9066 30.7133 83.8688 30.7511C83.7555 30.8266 83.7555 30.8644 83.7555 31.0155C83.7933 31.3555 83.9444 31.6576 84.0955 31.9976C84.3221 32.4509 84.3976 32.942 84.1332 33.3952C84.0199 33.6219 83.831 33.8485 83.8688 34.1507C83.8688 34.1885 83.8688 34.2263 83.831 34.2263C83.5289 34.4529 83.5288 34.8684 83.3022 35.095C83.2644 35.1328 83.1889 35.2084 83.1133 35.2461C82.8111 35.4728 82.4334 35.5106 82.0935 35.5861C82.0557 35.5861 81.9801 35.6617 81.9801 35.7372C82.0179 36.266 81.8668 36.7571 81.5646 37.2104C81.5646 37.2481 81.5268 37.2859 81.5268 37.2859C81.2624 37.6259 81.338 37.9658 81.5268 38.3058C81.6402 38.4569 81.5646 38.608 81.5268 38.7969C81.5268 38.948 81.4891 39.0991 81.3002 39.2124C81.1491 39.2879 81.0736 39.5523 80.998 39.7412C80.8847 39.9301 80.8091 40.1567 80.6581 40.3456C80.3559 40.7233 79.9404 40.9122 79.4871 40.8366C79.336 40.8366 79.1849 40.8744 79.1093 41.0255C78.8827 41.3655 78.5427 41.5166 78.165 41.6299C78.0517 41.6677 77.9761 41.7432 77.9761 41.8565C78.0139 42.0454 77.9383 42.1965 78.0139 42.4231C78.0894 42.5742 78.0139 42.8009 78.0139 42.9897C78.0139 43.0275 78.0139 43.0653 78.0139 43.1031C78.0894 43.3675 78.0139 43.5564 77.8628 43.783C77.7495 43.9719 77.5984 44.123 77.4473 44.3118C77.1829 44.6896 76.9185 45.0673 76.654 45.445C76.6163 45.5206 76.5407 45.5961 76.4652 45.5961C76.2385 45.6717 76.0119 45.7094 75.7852 45.7472C75.7097 45.7472 75.6719 45.8228 75.6342 45.8983C75.5586 46.125 75.5208 46.3138 75.4831 46.5405C75.4453 46.6916 75.4075 46.7293 75.2564 46.7293C75.1809 46.7293 75.1053 46.7671 75.0298 46.7671C74.652 46.7671 74.3121 46.9182 74.0099 47.1071H75.5964L74.4254 52.9998H150.653L155.903 26.7471H84.1332Z" fill="url(#paint0_linear_469_706)"/>
<path d="M88.5033 31.998H91.9785L89.4099 44.8411H95.3026L94.736 47.7874H85.3681L88.5033 31.998Z" fill="white"/>
<path d="M100.742 31.998H110.185L109.618 34.9444H103.612L102.97 38.1551H108.07L107.503 41.1015H102.441L101.648 44.8789H107.843L107.276 47.8252H97.6064L100.742 31.998Z" fill="white"/>
<path d="M110.563 41.4036C110.563 35.8887 114.302 31.6958 119.137 31.6958C121.064 31.6958 122.688 32.489 123.557 33.9622L121.63 36.0398C120.988 35.0954 120.044 34.6799 118.986 34.6799C116.267 34.6799 114.151 37.7018 114.151 41.177C114.151 43.5567 115.096 45.0677 117.475 45.0677C118.042 45.0677 118.684 44.8788 119.1 44.5766L119.742 41.6303H117.249L117.74 38.7595H123.33L121.857 46.3897C120.648 47.2963 118.835 48.0518 116.871 48.0518C112.942 48.0518 110.563 45.5965 110.563 41.4036Z" fill="white"/>
<path d="M130.885 31.998H135.041L136.627 47.7874H132.925L132.774 43.9345H128.203L126.39 47.7874H122.575L130.885 31.998ZM129.45 41.2526H132.661L132.585 39.2506C132.51 37.7019 132.434 36.2287 132.434 34.6044H132.321C131.641 36.2287 131.074 37.7019 130.357 39.2506L129.45 41.2526Z" fill="white"/>
<path d="M141.311 31.998H144.787L142.218 44.8411H148.111L147.544 47.7874H138.138L141.311 31.998Z" fill="white"/>
<path d="M6.16779 36.3416C6.16779 30.9022 9.8696 26.7471 14.4402 26.7471C16.2534 26.7471 17.6888 27.5403 18.5953 29.0135L16.6689 31.0533C15.9889 30.1089 15.1957 29.7312 14.2136 29.7312C11.7961 29.7312 9.71851 32.7153 9.71851 36.1527C9.71851 38.4947 10.6629 39.9301 12.7026 39.9301C13.7981 39.9301 14.7046 39.439 15.4601 38.7969L16.8955 40.9877C15.8001 42.0076 14.3269 42.9142 12.0983 42.9142C8.50976 42.9142 6.16779 40.4967 6.16779 36.3416Z" fill="white"/>
<path d="M22.2211 27.0493H27.1694C30.2669 27.0493 32.5711 28.1448 32.5711 31.0533C32.5711 33.9619 30.909 35.7373 28.6426 36.4927L31.0224 42.6121H27.3961L25.4696 37.0216H23.6187L22.5233 42.6121H19.0859L22.2211 27.0493ZM25.8096 34.3019C28.0382 34.3019 29.1714 33.2064 29.1714 31.5822C29.1714 30.2979 28.3027 29.769 26.6784 29.769H25.0919L24.2231 34.3019H25.8096Z" fill="white"/>
<path d="M39.2577 27.0493H43.3751L44.9238 42.6121H41.2975L41.1464 38.7969H36.6136L34.8004 42.6121H31.0231L39.2577 27.0493ZM37.8601 36.1905H41.0331L40.9575 34.2263C40.882 32.6776 40.8064 31.2422 40.8064 29.6179H40.6931C40.0132 31.2044 39.4466 32.6776 38.7667 34.2263L37.8601 36.1905Z" fill="white"/>
<path d="M45.7921 39.9678L47.8318 38.0414C48.7006 39.1746 50.0983 39.8923 51.5714 39.8923C52.7424 39.8923 53.6112 39.3257 53.6112 38.3814C53.6112 37.5126 52.9691 37.097 51.7981 36.3793L50.476 35.5483C49.0028 34.6795 48.0585 33.5085 48.0585 31.6576C48.0585 28.9379 50.5515 26.7471 53.4979 26.7471C55.3488 26.7471 57.0486 27.6536 58.2196 29.1268L56.2931 31.1288C55.4621 30.2978 54.5556 29.7312 53.4601 29.7312C52.2514 29.7312 51.6092 30.4489 51.6092 31.2799C51.6092 32.1109 52.2891 32.4509 53.5357 33.2441L55.0088 34.1507C56.5198 35.0951 57.1997 36.0016 57.1997 37.8525C57.1997 40.6856 54.8955 42.952 51.2315 42.952C49.305 42.9142 47.2652 42.0454 45.7921 39.9678Z" fill="white"/>
<path d="M62.0348 27.0493H65.4722L64.2634 33.0176H69.4006L70.5716 27.0493H74.009L70.9116 42.6121H67.4742L68.7963 36.0395H63.6968L62.4125 42.6121H58.9751L62.0348 27.0493Z" fill="white"/>
<path d="M77.9647 18.9053L75.5594 13.4685L79.3678 16.3999L82.3242 8.2571L83.3514 14.3704L87.2349 5L86.6548 11.9396L90.6924 11.414L87.9114 15.7234L95.1772 14.6711L88.9637 20.9097L93.7491 21.4609L87.6859 23.791" stroke="#0C0C0C" stroke-width="1.5" stroke-miterlimit="10"/>
<defs>
<linearGradient id="paint0_linear_469_706" x1="74.0099" y1="26.7471" x2="156.998" y2="48.8975" gradientUnits="userSpaceOnUse">
<stop stop-color="#FE1010"/>
<stop offset="0.614583" stop-color="#DA0802"/>
<stop offset="1" stop-color="#D20A00"/>
</linearGradient>
</defs>
</svg>
