<svg xmlns="http://www.w3.org/2000/svg" xmlns:xlink="http://www.w3.org/1999/xlink" preserveAspectRatio="xMidYMid" width="101" height="135" viewBox="0 0 101 135">
  <defs>
    <style>
      .cls-1 {
        fill: #fff;
        fill-rule: evenodd;
      }
    </style>
  </defs>
  <path d="M85.344,106.713 L99.843,125.799 C102.659,129.616 99.984,134.988 95.339,134.988 L55.921,134.988 L17.771,134.988 C12.985,134.988 10.733,129.333 13.970,125.940 L25.232,114.489 C28.892,110.954 30.863,106.006 30.863,100.917 L30.863,93.424 L16.082,93.424 C12.140,93.424 8.902,90.172 8.902,86.214 L8.902,66.563 L3.553,66.563 C0.737,66.563 -0.952,63.453 0.597,61.049 C2.145,58.646 3.975,55.253 5.805,51.860 C7.495,48.608 8.902,42.812 8.902,39.136 L8.902,38.146 C10.451,15.668 29.737,-1.721 52.824,0.117 C72.533,1.672 88.581,17.647 90.130,37.439 C90.975,49.032 87.174,59.635 80.276,67.552 L80.276,91.727 C80.276,97.099 82.106,102.472 85.344,106.713 ZM49.586,16.375 C36.072,16.375 25.092,27.402 25.092,40.974 C25.092,54.546 36.072,65.573 49.586,65.573 C63.101,65.573 74.082,54.546 74.082,40.974 C74.082,27.402 63.101,16.375 49.586,16.375 ZM60.116,56.897 L49.605,46.341 L49.574,46.310 L49.568,46.315 L39.057,56.871 L33.726,51.516 L44.236,40.961 L33.726,30.406 L39.057,25.051 L49.568,35.607 L49.599,35.638 L49.605,35.632 L60.116,25.077 L65.447,30.431 L54.937,40.987 L65.447,51.542 L60.116,56.897 Z" class="cls-1"/>
</svg>
